<svg xmlns="http://www.w3.org/2000/svg" viewBox="0 0 512 512" fill="none">
  <rect x="16" y="16" width="480" height="480" rx="96" fill="#0d0d0d"/>
  <rect x="16" y="16" width="480" height="480" rx="96" stroke="#22c55e" stroke-opacity="0.15" stroke-width="4"/>
  <circle cx="256" cy="196" r="52" stroke="#22c55e" stroke-width="34"/>
  <rect x="238" y="240" width="36" height="180" rx="18" fill="#22c55e"/>
  <rect x="150" y="272" width="212" height="30" rx="15" fill="#22c55e"/>
  <path d="M150 288 C 120 330, 104 370, 120 408 C 132 434, 158 442, 178 424 C 190 412, 190 392, 186 374 L 150 288 Z" fill="#22c55e"/>
  <path d="M362 288 C 392 330, 408 370, 392 408 C 380 434, 354 442, 334 424 C 322 412, 322 392, 326 374 L 362 288 Z" fill="#22c55e"/>
  <circle cx="256" cy="196" r="18" fill="#0d0d0d"/>
  <circle cx="380" cy="380" r="62" fill="#22c55e"/>
  <path d="M348 380 L 372 404 L 416 356" stroke="#0d0d0d" stroke-width="20" stroke-linecap="round" stroke-linejoin="round"/>
</svg>
